<svg xmlns="http://www.w3.org/2000/svg" viewBox="0 0 400 500">
  <defs><linearGradient id="g" x1="0" y1="0" x2="1" y2="1"><stop offset="0%" stop-color="#0F172A"/><stop offset="100%" stop-color="#020617"/></linearGradient></defs>
  <rect width="400" height="500" fill="url(#g)"/>
  <g opacity=".12" stroke="#C8A96B" stroke-width=".5" fill="none">
    <rect x="40" y="60" width="80" height="40" rx="4"/><rect x="140" y="60" width="80" height="40" rx="4"/>
    <rect x="240" y="60" width="120" height="40" rx="4"/>
    <rect x="40" y="120" width="120" height="40" rx="4"/><rect x="180" y="120" width="80" height="40" rx="4"/>
    <rect x="280" y="120" width="80" height="40" rx="4"/>
    <rect x="40" y="180" width="80" height="40" rx="4"/><rect x="140" y="180" width="160" height="40" rx="4"/>
  </g>
  <g opacity=".15">
    <path d="M60 300 L140 260 L220 290 L300 240 L340 260" stroke="#C8A96B" stroke-width="1.5" fill="none"/>
    <circle cx="60" cy="300" r="3" fill="#C8A96B"/><circle cx="140" cy="260" r="3" fill="#C8A96B"/>
    <circle cx="220" cy="290" r="3" fill="#C8A96B"/><circle cx="300" cy="240" r="3" fill="#C8A96B"/>
    <circle cx="340" cy="260" r="3" fill="#C8A96B"/>
  </g>
</svg>